<svg xmlns="http://www.w3.org/2000/svg" viewBox="20 18 165 115" fill="none">
  <!-- Open Book (left) -->
  <g stroke="#E8660F" stroke-width="5" stroke-linecap="round" stroke-linejoin="round" fill="none">
    <!-- Left page -->
    <path d="M30 55 Q30 45 40 43 L88 43 L88 118 Q78 116 68 117 Q50 118 30 125 Z"/>
    <!-- Right page spine highlight -->
    <line x1="88" y1="43" x2="88" y2="118"/>
    <!-- Book bottom curve -->
    <path d="M30 125 Q59 120 88 118"/>
    <!-- Left page lines -->
    <line x1="42" y1="65" x2="80" y2="65"/>
    <line x1="42" y1="77" x2="80" y2="77"/>
  </g>

  <!-- Notepad (right, behind pencil) -->
  <g stroke="#E8660F" stroke-width="5" stroke-linecap="round" stroke-linejoin="round" fill="none">
    <rect x="88" y="28" width="74" height="78" rx="5"/>
    <!-- Spiral rings -->
    <circle cx="100" cy="28" r="4"/>
    <circle cx="115" cy="28" r="4"/>
    <circle cx="130" cy="28" r="4"/>
    <circle cx="145" cy="28" r="4"/>
  </g>

  <!-- Pencil (diagonal over notepad) -->
  <g stroke="#E8660F" stroke-width="5" stroke-linecap="round" stroke-linejoin="round" fill="none">
    <line x1="145" y1="35" x2="100" y2="110"/>
    <!-- Pencil tip -->
    <path d="M100 110 L95 120 L108 112 Z"/>
    <!-- Pencil eraser end -->
    <line x1="141" y1="30" x2="150" y2="39"/>
  </g>

</svg>
