<svg xmlns="http://www.w3.org/2000/svg" viewBox="0 0 512 512">
  <!-- White circle background -->
  <circle cx="256" cy="256" r="256" fill="white"/>

  <!-- Logo centered, orange strokes -->
  <g stroke="#E8660F" stroke-width="11" stroke-linecap="round" stroke-linejoin="round" fill="none" transform="translate(256,256) scale(2.1) translate(-92.5,-75)">
    <!-- Open Book left page -->
    <path d="M30 55 Q30 45 40 43 L88 43 L88 118 Q78 116 68 117 Q50 118 30 125 Z"/>
    <line x1="88" y1="43" x2="88" y2="118"/>
    <path d="M30 125 Q59 120 88 118"/>
    <line x1="42" y1="65" x2="80" y2="65"/>
    <line x1="42" y1="77" x2="80" y2="77"/>
    <!-- Notepad -->
    <rect x="88" y="28" width="74" height="78" rx="5"/>
    <circle cx="100" cy="28" r="4"/>
    <circle cx="115" cy="28" r="4"/>
    <circle cx="130" cy="28" r="4"/>
    <circle cx="145" cy="28" r="4"/>
    <!-- Pencil -->
    <line x1="145" y1="35" x2="100" y2="110"/>
    <path d="M100 110 L95 120 L108 112 Z"/>
    <line x1="141" y1="30" x2="150" y2="39"/>
  </g>
</svg>
